# xmcd
#
# Track frame offsets:
#	150
#	7128
#	20820
#	30401
#	44817
#
# Disc length: 815 seconds
#
# Revision: 0
# Processed by: cddbd v1.5.2PL0 Copyright (c) Steve Scherf et al.
# Submitted via: EasyCDDAExtractor 9.0.0.1
#
DISCID=3e032d05
DTITLE=Stärkste Minderheit - Demo1
DYEAR=2008
DGENRE=Oi1
TTITLE0=Intro
TTITLE1=Punx and Skins
TTITLE2=Stolz
TTITLE3=1000 von euch
TTITLE4=Wutausbruch
EXTD=
EXTT0=
EXTT1=
EXTT2=
EXTT3=
EXTT4=
PLAYORDER=
